PathFileType	4	(X/Y/Z)	C:/Users/beibeiliu/ov580/test_trc/User3\sequence.36_training_dense_right.trc
DataRate	CameraRate	NumFrames	NumMarkers	Units	OrigDataRate	OrigDataStartFrame	OrigNumFrames
120	120	16	19	mm	120	1	67
Frame#	Time	ThumbCMC			ThumbMCP			ThumbIP			ThumbTip			IndexMCP			IndexPIP			IndexTip			MiddleMCP			MiddlePIP			MiddleTip			RingMCP			RingPIP			RingTip			PinkyMCP			PinkyPIP			PinkyTip			BackHand1			BackHand2			BackHand3	
		X0	Y0	Z0	X1	Y1	Z1	X2	Y2	Z2	X3	Y3	Z3	X4	Y4	Z4	X5	Y5	Z5	X6	Y6	Z6	X7	Y7	Z7	X8	Y8	Z8	X9	Y9	Z9	X10	Y10	Z10	X11	Y11	Z11	X12	Y12	Z12	X13	Y13	Z13	X14	Y14	Z14	X15	Y15	Z15	X16	Y16	Z16	X17	Y17	Z17	X18	Y18	Z18	
0	0	100.913	13.3764	9.58753	73.9336	3.86216	-8.3896	56.6683	-6.7367	-30.8943	46.4761	-17.0534	-48.0573	107.518	18.9834	-68.7704	96.6128	11.6472	-96.719	86.2792	4.96697	-115.661	136.666	21.1331	-75.3717	129.212	18.2524	-103.039	127.493	9.6363	-134.456	155.208	13.8859	-67.8964	157.097	12.0909	-94.7168	160.893	3.81393	-121.956	175.043	2.78707	-51.7082	186.073	-0.118485	-71.6876	196.653	-4.47851	-89.8123	157.238	25.1916	-19.721	159.806	32.3441	10.5699	126.553	33.7617	-3.60259	
1	0.00833333	97.5103	12.9453	5.2521	77.5188	3.2723	-7.75288	57.4559	-6.55408	-32.4441	43.2049	-16.6608	-44.9915	106.777	18.063	-68.3271	93.8822	13.2486	-95.5709	88.6824	3.52093	-119.158	132.448	21.076	-73.7498	127.838	17.7098	-106.538	126.649	10.2389	-136.043	152.328	14.6907	-69.7067	160.892	11.6895	-91.1152	159.278	4.65261	-120.996	173.67	2.62086	-50.5903	186.222	0.553317	-72.2229	192.819	-4.24299	-93.6236	155.997	24.5634	-19.1671	158.956	30.9944	10.6465	124.989	34.2276	-6.47551	
2	0.0166667	96.714	13.2955	10.9311	77.2492	2.48759	-9.93743	55.9823	-6.53663	-30.9744	45.8741	-16.4894	-46.9725	107.028	17.9979	-68.5016	94.0313	13.916	-91.487	90.0917	5.03031	-116.114	132.22	21.3212	-78.4424	127.831	18.042	-105.628	127.388	9.8708	-136.916	155.133	14.2875	-67.8643	156.781	12.4653	-90.6534	160.064	4.59602	-119.057	174.116	4.54041	-51.2459	185.662	0.30443	-69.119	193.19	-2.60516	-88.9712	156.647	24.817	-19.8426	161.634	31.3626	8.2506	126.77	34.4628	-4.67798	
3	0.025	95.6633	13.1955	7.85295	75.4184	3.17219	-7.25627	56.9176	-6.73115	-32.9274	43.834	-17.2538	-47.5735	105.688	18.8912	-66.4929	93.9519	12.874	-95.7673	91.5626	4.70674	-118.141	136.961	22.0052	-76.4771	132.619	18.3806	-106.962	130.913	9.81979	-135.221	154.047	16.4357	-69.4714	158.737	13.4935	-94.8079	159.251	5.30623	-119.826	174.251	4.89898	-50.2048	184.564	1.45063	-67.683	195.811	-3.18694	-92.6325	154.269	27.4468	-20.0231	160.152	30.0904	11.2729	123.013	33.7436	-8.00068	
4	0.0333333	95.9748	15.7586	5.79238	77.7106	5.20474	-9.41752	57.8586	-3.69536	-32.3316	45.1261	-14.2339	-49.0247	108.671	20.0076	-71.291	96.5055	15.625	-93.7151	94.0211	5.46766	-117.888	134.535	22.4865	-73.5334	132.336	17.2415	-107.295	129.518	9.42657	-134.21	155.091	14.3543	-65.0334	157.604	12.4075	-95.9942	160.82	3.25053	-122.046	176.45	2.51267	-47.7114	187.395	-0.129627	-72.8348	195.724	-9.3021	-93.6055	156.839	26.3747	-17.1367	165.106	31.1946	10.5781	130.578	34.1515	-4.83091	
5	0.0416667	99.3929	22.3616	3.33646	81.2634	14.0288	-11.8356	61.4744	7.43118	-30.1948	46.621	-0.267554	-47.3366	109.937	20.5657	-70.7833	103.67	13.5994	-97.6848	90.1708	5.70719	-120.324	140.33	16.9353	-75.3068	137.437	10.5916	-104.978	129.595	-0.0156759	-132.421	155.977	7.73381	-69.2875	161.488	1.50195	-93.3406	157.092	-10.1325	-117.316	177.636	-7.21904	-50.8696	182.702	-12.9425	-69.9115	191.212	-28.2508	-94.0729	164.503	19.5405	-20.7111	166.53	26.1742	6.7425	135.74	34.5327	-10.5233	
6	0.05	108.162	32.7141	0.48568	84.6242	33.3845	-14.5069	62.5516	31.181	-37.0299	47.1316	25.7613	-50.4696	117.152	20.5264	-74.457	103.771	15.2321	-99.8606	97.897	2.82227	-120.786	140.775	9.55116	-78.8406	134.742	-1.16821	-105.674	124.853	-16.0774	-132.397	158.206	-7.25653	-69.8758	156.927	-18.0026	-92.7776	149.786	-32.8484	-114.068	168.097	-21.1055	-48.5564	173.265	-37.1906	-69.906	169.588	-54.3603	-90.327	165.928	14.0651	-20.1146	169.739	20.1728	6.76742	142.684	35.0963	-13.5024	
7	0.0583333	121.538	46.3161	-0.947203	100.189	51.7723	-21.5244	80.0071	54.5205	-43.6523	63.4586	53.9797	-60.8045	125.049	22.395	-78.9146	111.132	12.0766	-103.524	97.2136	3.35876	-123.59	142.071	-1.67393	-81.4241	129.234	-12.2713	-105.914	111.215	-30.8254	-129.575	151.062	-21.0912	-69.4682	143.557	-34.7432	-90.3507	127.706	-45.0614	-108.021	157.104	-32.9576	-45.9191	152.526	-48.3732	-64.2981	140.888	-68.4253	-81.3389	169.083	3.97345	-25.8862	175.616	11.3472	6.90863	154.662	35.8119	-15.1836	
8	0.0666667	135.743	47.8535	-8.49373	117.586	61.3731	-25.7917	101.146	65.9606	-48.0039	85.0581	70.1009	-65.4046	133.504	20.1085	-81.1262	117.545	15.8121	-104.08	101.064	7.09215	-118.764	142.522	-5.15463	-80.2811	121.266	-15.2691	-104.758	98.1763	-23.1146	-118.169	145.008	-20.8327	-66.0869	129.806	-33.5726	-85.8501	103.817	-45.6935	-100.64	146.732	-38.8883	-46.6046	131.999	-50.5115	-63.9253	112.605	-64.6305	-71.2138	171.856	-7.21366	-23.1743	177.494	-0.777773	5.23707	165.38	28.1551	-14.7066	
9	0.075	149.029	52.628	-4.11064	132.853	65.1121	-27.8473	119.993	72.9571	-51.3585	106.81	77.704	-72.0001	142.776	20.0651	-80.5107	124.926	22.1599	-100.809	98.0917	14.7429	-114.285	142.677	-0.149405	-83.0368	116.821	-6.88028	-101.522	87.1007	-7.76533	-108.443	142.455	-19.7667	-65.9289	121.237	-26.0552	-84.2067	90.5922	-28.1478	-90.5991	140.261	-39.1895	-46.8282	121.069	-44.9314	-63.0383	95.799	-44.6365	-70.265	170.677	-5.92395	-20.5238	177.216	-6.29646	5.73063	175.248	23.1068	-12.5916	
10	0.0833333	155.631	47.9233	-4.72287	142.955	64.5258	-29.8243	131.04	73.7452	-54.2441	120.45	75.2521	-75.3586	151.604	24.6975	-76.4367	125.692	25.269	-100.125	100.346	20.0735	-104.073	145.113	0.661454	-79.7654	118.792	-1.85348	-95.209	83.5008	4.18333	-89.5639	141.12	-18.7094	-68.1854	117.038	-20.1926	-81.3519	86.4187	-12.9866	-76.7521	138.581	-36.2522	-48.186	117.666	-36.0046	-63.6012	88.7135	-25.7924	-63.9723	174.384	-7.97143	-17.7056	180.805	-7.6906	10.8835	178.203	21.6575	-9.37377	
11	0.0916667	156.866	48.8405	1.7205	146.351	56.4761	-26.1649	136.992	66.3076	-57.9886	127.369	68.7219	-79.7486	154.955	28.2754	-76.6112	128.478	27.3395	-95.6177	98.2985	30.1903	-90.1985	149.974	7.74121	-76.0886	116.535	7.66289	-89.4125	86.3253	18.3612	-70.8462	143.883	-13.5208	-67.7388	115.919	-12.8778	-76.4786	89.7898	1.9484	-59.5878	141.03	-27.7188	-54.3418	115.185	-27.1943	-64.8337	92.4119	-14.1414	-54.7592	176.405	-10.822	-21.3544	180.557	-8.56198	10.8706	181.363	24.6325	-11.1187	
12	0.1	156.454	50.4751	-1.33078	146.239	55.574	-30.2404	136.86	57.8629	-58.0266	128.805	53.4722	-81.1637	157.294	29.2255	-80.8433	130.182	28.0894	-96.5146	103.806	35.0576	-89.1724	148.469	9.98796	-81.8831	114.836	9.15116	-86.8407	91.0067	17.9296	-62.9929	143.909	-9.88995	-70.7997	112.567	-9.57423	-74.5088	94.0088	7.12107	-54.3778	142.581	-27.8442	-57.2888	118.091	-21.9556	-66.9218	97.4418	-6.98459	-52.6364	179.985	-8.13708	-22.2632	179.829	-7.8798	8.46108	184.223	25.2128	-8.46461	
13	0.108333	153.763	47.5057	-5.92843	143.823	59.0311	-34.052	135.815	54.7379	-62.0797	125.294	47.081	-81.8986	155.652	26.7064	-79.6235	129.234	25.5064	-100.324	97.2887	31.6568	-89.8675	149.777	5.47066	-81.1642	117.9	7.48076	-93.4096	87.0701	14.7493	-67.3359	141.535	-12.0891	-73.9192	114.763	-5.85128	-79.979	93.1423	1.41073	-58.7909	142.916	-28.7424	-56.9939	114.949	-22.9639	-68.1791	97.8446	-9.23173	-56.1422	177.455	-5.509	-22.0393	178.74	-6.32659	4.50732	181.185	27.9679	-11.2516	
14	0.116667	150.52	50.3587	-5.67485	140.142	64.8014	-31.6653	131.964	60.5214	-60.9123	121.868	47.5871	-85.1131	150.237	29.6873	-83.8346	121.845	26.4561	-99.2164	94.5417	32.2917	-89.8425	145.61	11.2786	-83.2245	116.302	7.31529	-94.8039	83.9299	14.2091	-71.504	140.65	-12.0432	-73.1665	109.088	-8.9777	-80.0483	89.5593	2.93553	-56.74	140.928	-26.5753	-57.2988	114.839	-28.1136	-68.9646	92.4275	-10.1722	-53.6618	174.326	-7.63243	-23.9166	177.742	-3.20252	5.43372	175.762	27.8718	-15.2633	
15	0.125	150.391	52.5512	-3.46534	138.787	62.4405	-28.4543	130.008	65.1553	-57.0918	120.338	54.0751	-78.8107	148.268	33.5202	-80.6027	118.498	33.1101	-95.8503	91.4444	36.8383	-84.6432	142.248	12.6984	-82.6154	110.195	15.1282	-91.4442	83.2946	19.0336	-68.4786	139.87	-4.65626	-73.4142	111.371	-10.1726	-79.1527	88.926	1.93342	-54.0029	140.162	-25.0494	-57.1057	114.338	-24.629	-67.7806	92.4977	-9.46029	-53.1236	174.932	-7.48256	-21.8441	178.102	-6.75029	4.62424	175.44	28.6624	-9.81308	
